<svg width="50" height="50" viewBox="0 0 50 50" fill="none" xmlns="http://www.w3.org/2000/svg">
<g clip-path="url(#clip0_402_175)">
<path d="M27.7237 50.0011C26.4977 50.0003 25.2733 49.9121 24.0598 49.7372C18.6355 48.8876 13.6373 46.2888 9.82625 42.3363C6.01524 38.3839 3.60019 33.2945 2.94874 27.8428C2.53467 24.3346 2.8751 20.7783 3.94726 17.4124C5.01941 14.0464 6.79851 10.9485 9.16538 8.32612C13.5501 3.42229 19.6929 0.446855 26.2589 0.0463594C32.825 -0.354137 39.2838 1.85261 44.2321 6.18717C44.7877 6.66578 45.2332 7.2589 45.5382 7.92583C45.8431 8.59276 46.0002 9.3177 45.9987 10.051C45.985 10.7999 45.81 11.537 45.4854 12.2119C45.1609 12.8869 44.6945 13.4839 44.1182 13.9622L44.0571 14.0094C43.0777 14.8325 41.8375 15.2805 40.5582 15.2734C39.2789 15.2662 38.0439 14.8044 37.0737 13.9705C34.4791 11.7733 31.1903 10.5659 27.7904 10.5622C27.3542 10.5622 26.936 10.3889 26.6276 10.0805C26.3192 9.77215 26.146 9.35387 26.146 8.91774C26.146 8.4816 26.3192 8.06332 26.6276 7.75493C26.936 7.44654 27.3542 7.27326 27.7904 7.27326C31.9674 7.27756 36.0079 8.7606 39.1959 11.4594C39.5733 11.7905 40.0563 11.9763 40.5582 11.9834C41.0602 11.9905 41.5482 11.8185 41.9348 11.4983L41.9959 11.4511C42.2115 11.2793 42.3871 11.0625 42.5104 10.8159C42.6337 10.5694 42.7017 10.2989 42.7098 10.0233C42.7062 9.76377 42.6461 9.50808 42.5339 9.27403C42.4217 9.03997 42.2599 8.83312 42.0598 8.66774C38.9211 5.92316 35.0586 4.14017 30.9338 3.53172C26.809 2.92327 22.5962 3.51505 18.7986 5.23647C15.0011 6.95788 11.7794 9.73611 9.51841 13.2393C7.25738 16.7424 6.05261 20.8225 6.04801 24.9919C6.04341 29.1614 7.23917 33.244 9.49247 36.7521C11.7458 40.2603 14.9613 43.0457 18.755 44.7755C22.5487 46.5053 26.7602 47.1063 30.8863 46.507C35.0125 45.9076 38.8789 44.1332 42.0237 41.3956C42.2214 41.216 42.3791 40.9967 42.4864 40.7521C42.5937 40.5075 42.6482 40.243 42.6463 39.9759C42.6445 39.7088 42.5864 39.4451 42.4757 39.2019C42.3651 38.9588 42.2045 38.7418 42.0043 38.565L41.9487 38.5178C41.578 38.1914 41.101 38.0113 40.607 38.0113C40.1131 38.0113 39.6361 38.1914 39.2654 38.5178C37.2507 40.2349 34.8782 41.4809 32.3209 42.1649C32.1102 42.2257 31.8894 42.2437 31.6716 42.2178C31.4538 42.192 31.2434 42.1228 31.0528 42.0144C30.8621 41.906 30.6951 41.7606 30.5615 41.5866C30.4279 41.4127 30.3304 41.2138 30.2748 41.0016C30.2192 40.7895 30.2066 40.5684 30.2378 40.3513C30.2689 40.1342 30.3432 39.9255 30.4562 39.7375C30.5692 39.5496 30.7187 39.3861 30.8958 39.2568C31.0729 39.1275 31.2741 39.0348 31.4876 38.9844C33.5705 38.4269 35.5027 37.4115 37.1432 36.0122C38.1097 35.1824 39.3415 34.7262 40.6154 34.7262C41.8893 34.7262 43.1211 35.1824 44.0876 36.0122L44.1404 36.0566C44.7034 36.5386 45.1565 37.1357 45.4691 37.8076C45.7817 38.4796 45.9466 39.2107 45.9527 39.9518C45.9587 40.6929 45.8058 41.4267 45.5042 42.1037C45.2026 42.7806 44.7593 43.3849 44.2043 43.876C39.6328 47.8445 33.7774 50.0207 27.7237 50.0011Z" fill="#2C3550"/>
<path d="M21.435 11.8733C21.0569 11.8734 20.6903 11.7433 20.3969 11.5047C20.1036 11.2662 19.9015 10.9338 19.8245 10.5636C19.7475 10.1934 19.8004 9.80807 19.9744 9.47236C20.1483 9.13666 20.4326 8.87114 20.7794 8.72053L20.9683 8.64C21.3705 8.47276 21.8228 8.47221 22.2255 8.63839C22.6281 8.80456 22.9483 9.12386 23.1155 9.52611C23.2828 9.92835 23.2833 10.3806 23.1172 10.7833C22.951 11.1859 22.6317 11.5061 22.2294 11.6734L22.085 11.7345C21.8806 11.8264 21.659 11.8737 21.435 11.8733Z" fill="#6F66FF"/>
<path d="M20.0655 40.7122C19.7846 40.7115 19.5085 40.6398 19.2627 40.5039C16.5699 39.0088 14.3083 36.8442 12.6967 34.2194C11.085 31.5947 10.1778 28.5984 10.0628 25.5205C9.98594 23.1271 10.3992 20.7433 11.2772 18.5154C12.1552 16.2875 13.4793 14.2626 15.1683 12.565C15.3197 12.4115 15.4999 12.2891 15.6985 12.2052C15.8971 12.1212 16.1103 12.0773 16.326 12.0757C16.5416 12.0742 16.7555 12.1151 16.9553 12.1962C17.1551 12.2773 17.337 12.3969 17.4906 12.5483C17.6441 12.6997 17.7664 12.8799 17.8503 13.0785C17.9343 13.2771 17.9783 13.4903 17.9798 13.706C17.9814 13.9216 17.9404 14.1355 17.8594 14.3353C17.7783 14.5351 17.6586 14.717 17.5072 14.8705C16.1305 16.2535 15.0508 17.9031 14.3343 19.7182C13.6178 21.5333 13.2796 23.4756 13.3406 25.4261C13.4361 27.9382 14.1784 30.3832 15.4957 32.5244C16.813 34.6655 18.6607 36.4305 20.86 37.6484C21.1767 37.8264 21.4254 38.1044 21.5675 38.4388C21.7095 38.7731 21.7368 39.1452 21.6451 39.4967C21.5534 39.8482 21.3479 40.1596 21.0606 40.382C20.7733 40.6044 20.4205 40.7254 20.0572 40.7261L20.0655 40.7122Z" fill="#5BBDF4"/>
<path d="M27.6405 15.501C25.2539 15.5642 22.9758 16.5118 21.2486 18.16C19.5213 19.8082 18.4681 22.0394 18.2933 24.4204C18.1553 26.6998 18.8406 28.9529 20.2243 30.7695C21.608 32.586 23.5981 33.8451 25.8322 34.3176V37.0038C25.8323 37.1582 25.8766 37.3093 25.96 37.4393C26.0433 37.5693 26.1622 37.6727 26.3025 37.7373C26.4427 37.8019 26.5985 37.8249 26.7514 37.8037C26.9044 37.7825 27.0481 37.718 27.1655 37.6177L33.1349 32.8676C34.8265 31.7171 36.102 30.0518 36.7719 28.1188C37.4417 26.1857 37.4702 24.0883 36.8532 22.1377C36.2362 20.1872 35.0066 18.4877 33.3469 17.2915C31.6873 16.0954 29.686 15.4665 27.6405 15.4982V15.501ZM31.3322 30.101L26.4877 33.8954V31.6732C26.4826 31.4976 26.4221 31.328 26.3148 31.1888C26.2076 31.0496 26.059 30.9479 25.8905 30.8982C24.5245 30.4705 23.3441 29.5918 22.5423 28.406C21.7405 27.2202 21.3649 25.7975 21.4768 24.3704C21.5887 22.9434 22.1815 21.5966 23.1584 20.5503C24.1352 19.504 25.4382 18.8202 26.8542 18.6107C28.2702 18.4012 29.7154 18.6784 30.9534 19.397C32.1914 20.1156 33.1489 21.233 33.6692 22.5665C34.1896 23.9 34.2421 25.3706 33.818 26.7377C33.394 28.1049 32.5185 29.2877 31.3349 30.0926L31.3322 30.101Z" fill="#6F66FF"/>
</g>
<defs>
<clipPath id="clip0_402_175">
<rect width="50" height="50" fill="white"/>
</clipPath>
</defs>
</svg>
